<svg xmlns="http://www.w3.org/2000/svg" width="14pt" height="14pt" viewBox="0 0 14 14"><g fill="#fff"><path d="M6.824 0A6.823 6.823 0 000 6.824a6.823 6.823 0 006.824 6.824 6.823 6.823 0 006.824-6.824A6.833 6.833 0 006.824 0zm0 12.156a5.331 5.331 0 01-5.332-5.332 5.331 5.331 0 015.332-5.332 5.331 5.331 0 015.332 5.332 5.341 5.341 0 01-5.332 5.332zm0 0"/><path d="M7.414 6.832v-2.86a.577.577 0 00-.578-.577.577.577 0 00-.578.578v3.07a.568.568 0 00.168.437l2.152 2.153a.575.575 0 00.817 0 .575.575 0 000-.817zm0 0"/></g></svg>