<svg xmlns="http://www.w3.org/2000/svg" width="120" height="88pt" viewBox="0 0 149 88"><path d="M0 39.031c3.172-5.773 4.047-6.285 12.086-6.836-1.145-10.715.82-19.25 15.02-16.812 0-2.45-.055-4.406.011-6.356.149-4.379 2.672-7.953 6.82-8.547A38.45 38.45 0 0144.734.47c4.274.617 6.813 4.218 6.871 8.84.079 6.07.02 12.14.02 18.214v3.387h45.574V11.73c0-8.714 2.985-11.707 11.688-11.707 1.43 0 2.87-.078 4.293.036 4.734.23 8.472 4.109 8.53 8.859.048.984.005 1.973.005 3.41 4.832.379 10.941-1.387 13.277 4.117 1.852 4.352 1.774 9.524 2.602 14.63 5.261-.509 9.41 1.577 11.23 7.292v10.61c-2.219 5-5.949 7.437-12.137 6.488 1.208 11.055-.757 19.582-14.964 17.156 0 1.887.015 3.285-.008 4.68a19.386 19.386 0 01-.156 3.297c-1.13 5.886-6.215 8.23-15.832 7.363-4.864-.25-8.637-4.344-8.504-9.223-.086-6.508-.016-13.015-.028-19.527 0-1.07-.093-2.145-.152-3.379H51.629v16.844c0 1.984.043 3.972-.008 5.957-.144 5.613-3.742 9.187-9.398 9.344-1.762.046-3.524.027-5.285.003-6.227-.09-9.68-3.574-9.833-9.898-.015-.66-.066-1.316-.125-2.41-4.718-.348-10.824 1.383-13.156-4.117-1.847-4.352-1.765-9.524-2.59-14.618-5.27.508-9.418-1.582-11.234-7.292zm46.375 5.145c0-11.262 0-22.524-.008-33.785-.008-3.973-1.156-5.082-5.101-5.141-.993-.016-1.985-.004-2.973 0-5.078.016-5.961.883-5.969 5.953-.004 20.977-.004 41.953 0 62.93 0 8.691 0 8.691 8.598 8.62 4.398-.034 5.445-1.054 5.453-5.456.016-11.043.016-22.082 0-33.121zm56.074-.317c0 11.153 0 22.305.004 33.453.008 4.383 1.063 5.407 5.469 5.438.883.008 1.762.004 2.644 0 5.051-.012 5.93-.887 5.934-5.988.008-20.977.008-41.953 0-62.93 0-8.66 0-8.66-8.633-8.586-4.39.04-5.414 1.05-5.418 5.492-.011 11.043-.015 22.082 0 33.125zm-50.652-7.32v13.648h45.176V36.54zm70.082 31.027h5.488c2.692-.004 4.156-1.421 4.164-4.05.047-14.004.047-28.008 0-42.012-.004-2.328-1.336-3.715-3.664-3.863-1.937-.121-3.887-.024-5.984-.024zm-94.93-47.14h-3.191c-5.781-.02-6.492.672-6.492 6.383v36.058c0 7.168.597 7.762 7.664 7.578.629-.015 1.258-.14 2.02-.234zM137.09 36.5v13.758c5.63.351 6.446-.406 6.458-5.727v-2.304c-.012-5.258-.828-6.008-6.457-5.723zm-125.35 15V37.746c-5.641-.363-6.45.39-6.466 5.711v2.309c.016 5.257.836 6.02 6.465 5.734zm0 0" fill="#b6b8bd" id="surface1"/></svg>