<svg xmlns="http://www.w3.org/2000/svg" xmlns:xlink="http://www.w3.org/1999/xlink" width="100pt" height="73pt" viewBox="0 0 100 73"><defs><clipPath id="clip1"><path d="M0 0h100v73H0z"/></clipPath><filter id="alpha" filterUnits="objectBoundingBox" x="0%" y="0%" width="100%" height="100%"><feColorMatrix in="SourceGraphic" values="0 0 0 0 1 0 0 0 0 1 0 0 0 0 1 0 0 0 1 0"/></filter><mask id="mask0"><g filter="url(#alpha)"><path fill-opacity=".102" d="M0 0h100v73H0z"/></g></mask><g id="surface5" clip-path="url(#clip1)" fill="#b6b8bd"><path d="M55.102 43.922c0-5.543.054-11.09-.012-16.633-.113-9.36 4.3-16.121 12.289-20.379C72.37 4.246 77.809 2.422 83.05.23c1.277-.535 1.945-.128 2.039 1.286.187 2.812.11 5.152-2.91 6.98-4.512 2.738-8.114 6.57-9.555 11.941a16.18 16.18 0 00-.453 2.317c-.422 3.531.348 4.375 3.96 4.383 4.665.008 9.329-.028 13.993.008 6.215.046 10.2 4.043 10.227 10.289.03 8.316.03 16.632 0 24.949-.02 6.3-4.11 10.304-10.465 10.312-8.067.008-16.13.008-24.196 0-6.543-.004-10.597-4.105-10.597-10.707.004-6.023.004-12.047.008-18.066zM.023 43.82c0-5.465.09-10.933-.015-16.398-.196-9.902 4.55-16.766 13.113-21.04 4.723-2.355 9.754-4.077 14.633-6.12 1.46-.61 2.082-.075 2.18 1.386.183 2.743.027 4.965-2.88 6.778-5.136 3.199-9.093 7.605-10.1 13.988-.575 3.625.273 4.711 3.847 4.719 4.668.008 9.332-.02 13.996.008 6.332.035 10.414 4.07 10.441 10.367.032 8.476.032 16.953 0 25.43a9.579 9.579 0 01-2.761 6.874 9.54 9.54 0 01-6.832 2.844c-8.618.102-17.239.102-25.86.008C4.113 72.61.04 68.312.023 62.594.008 56.336.02 50.078.023 43.82zm0 0"/></g></defs><use xlink:href="#surface5" mask="url(#mask0)" id="surface1"/></svg>